<svg width="32" height="37" viewBox="0 0 32 37" fill="none" xmlns="http://www.w3.org/2000/svg">
<path d="M20.8828 17.6562C20.8828 16.5312 20.0391 15.6172 19.0547 15.6172C18 15.6172 17.1562 16.5312 17.1562 17.6562C17.1562 18.7109 18 19.625 19.0547 19.625C20.0391 19.625 20.8828 18.7109 20.8828 17.6562ZM12.4453 15.6172C11.4609 15.6172 10.6172 16.5312 10.6172 17.6562C10.6172 18.7109 11.4609 19.625 12.4453 19.625C13.5 19.625 14.2734 18.7109 14.2734 17.6562C14.3438 16.5312 13.5 15.6172 12.4453 15.6172ZM31.5 4.22656C31.5 2.1875 29.8125 0.5 27.7734 0.5H3.65625C1.61719 0.5 0 2.1875 0 4.22656V28.5547C0 30.6641 1.61719 32.2812 3.65625 32.2812H24.0469L23.1328 28.9766C28.4062 33.8281 26.9297 32.5625 31.5 36.5V4.22656ZM26.3672 21.3125C26.3672 21.3125 24.8203 23.9141 20.8125 24.0547C20.8125 24.0547 20.1797 23.2812 19.6172 22.5781C22.0078 21.9453 22.9219 20.4688 22.9219 20.4688C22.1484 20.9609 21.4453 21.2422 20.8125 21.5234C16.9453 23.1406 12.6562 22.5781 9.5625 20.8906C9.5625 20.8203 9.14062 20.6094 8.85938 20.3984C8.85938 20.3984 9.70312 21.875 12.0234 22.5781C11.4609 23.2109 10.8281 24.0547 10.8281 24.0547C6.82031 23.9141 5.34375 21.3125 5.34375 21.3125C5.34375 15.4766 7.875 10.8359 7.875 10.8359C10.4766 8.86719 12.9375 8.9375 12.9375 8.9375L13.1484 9.14844C9.91406 10.0625 8.4375 11.4688 8.4375 11.4688C8.4375 11.4688 8.78906 11.2578 9.49219 10.9766C13.6406 9.14844 18.6328 9.14844 22.9219 11.4688C22.9219 11.4688 21.5156 10.1328 18.4219 9.21875L18.7031 8.9375C18.7031 8.9375 21.1641 8.86719 23.7656 10.8359C23.7656 10.8359 26.3672 15.4766 26.3672 21.3125Z" fill="#C8F7EF"/>
</svg>
