<svg width="33" height="33" viewBox="0 0 33 33" fill="none" xmlns="http://www.w3.org/2000/svg">
<path d="M16.75 8.41406C12.25 8.41406 8.66406 12.0703 8.66406 16.5C8.66406 21 12.25 24.5859 16.75 24.5859C21.1797 24.5859 24.8359 21 24.8359 16.5C24.8359 12.0703 21.1797 8.41406 16.75 8.41406ZM16.75 21.7734C13.8672 21.7734 11.4766 19.4531 11.4766 16.5C11.4766 13.6172 13.7969 11.2969 16.75 11.2969C19.6328 11.2969 21.9531 13.6172 21.9531 16.5C21.9531 19.4531 19.6328 21.7734 16.75 21.7734ZM27.0156 8.13281C27.0156 7.07812 26.1719 6.23438 25.1172 6.23438C24.0625 6.23438 23.2188 7.07812 23.2188 8.13281C23.2188 9.1875 24.0625 10.0312 25.1172 10.0312C26.1719 10.0312 27.0156 9.1875 27.0156 8.13281ZM32.3594 10.0312C32.2188 7.5 31.6562 5.25 29.8281 3.42188C28 1.59375 25.75 1.03125 23.2188 0.890625C20.6172 0.75 12.8125 0.75 10.2109 0.890625C7.67969 1.03125 5.5 1.59375 3.60156 3.42188C1.77344 5.25 1.21094 7.5 1.07031 10.0312C0.929688 12.6328 0.929688 20.4375 1.07031 23.0391C1.21094 25.5703 1.77344 27.75 3.60156 29.6484C5.5 31.4766 7.67969 32.0391 10.2109 32.1797C12.8125 32.3203 20.6172 32.3203 23.2188 32.1797C25.75 32.0391 28 31.4766 29.8281 29.6484C31.6562 27.75 32.2188 25.5703 32.3594 23.0391C32.5 20.4375 32.5 12.6328 32.3594 10.0312ZM28.9844 25.7812C28.4922 27.1875 27.3672 28.2422 26.0312 28.8047C23.9219 29.6484 19 29.4375 16.75 29.4375C14.4297 29.4375 9.50781 29.6484 7.46875 28.8047C6.0625 28.2422 5.00781 27.1875 4.44531 25.7812C3.60156 23.7422 3.8125 18.8203 3.8125 16.5C3.8125 14.25 3.60156 9.32812 4.44531 7.21875C5.00781 5.88281 6.0625 4.82812 7.46875 4.26562C9.50781 3.42188 14.4297 3.63281 16.75 3.63281C19 3.63281 23.9219 3.42188 26.0312 4.26562C27.3672 4.75781 28.4219 5.88281 28.9844 7.21875C29.8281 9.32812 29.6172 14.25 29.6172 16.5C29.6172 18.8203 29.8281 23.7422 28.9844 25.7812Z" fill="#C8F7EF"/>
</svg>
