<svg width="32" height="36" viewBox="0 0 32 36" fill="none" xmlns="http://www.w3.org/2000/svg">
<path d="M31.1997 14.7593C28.1337 14.7667 25.1428 13.8013 22.6497 11.9995V24.5658C22.6488 26.8932 21.9442 29.1649 20.6301 31.0771C19.3159 32.9893 17.4549 34.4508 15.2958 35.2663C13.1367 36.0818 10.7825 36.2124 8.54789 35.6405C6.31331 35.0687 4.3049 33.8218 2.79121 32.0664C1.27752 30.311 0.330709 28.1309 0.0773679 25.8176C-0.175973 23.5043 0.276238 21.1681 1.37353 19.1212C2.47083 17.0744 4.1609 15.4146 6.21777 14.3637C8.27464 13.3128 10.6003 12.921 12.8837 13.2405V19.5609C11.8388 19.2291 10.7168 19.2391 9.67783 19.5895C8.6389 19.9399 7.7362 20.6128 7.09864 21.512C6.46107 22.4113 6.12126 23.4909 6.12771 24.5968C6.13416 25.7027 6.48655 26.7782 7.13456 27.6698C7.78257 28.5614 8.69306 29.2235 9.736 29.5615C10.7789 29.8996 11.901 29.8962 12.942 29.552C13.9829 29.2077 14.8895 28.5402 15.5323 27.6448C16.175 26.7493 16.5211 25.6717 16.5211 24.5658V0H22.6497C22.6454 0.52252 22.6888 1.04433 22.7792 1.55883C22.9922 2.70737 23.435 3.79997 24.0805 4.76981C24.7261 5.73965 25.5608 6.56633 26.5337 7.1993C27.9177 8.12327 29.5405 8.61574 31.1997 8.61539V14.7593Z" fill="#C8F7EF"/>
</svg>
